<?xml version="1.0" standalone="no"?>
<!DOCTYPE svg PUBLIC "-//W3C//DTD SVG 20010904//EN"
 "http://www.w3.org/TR/2001/REC-SVG-20010904/DTD/svg10.dtd">
<svg version="1.0" xmlns="http://www.w3.org/2000/svg"
 width="512.000000pt" height="511.000000pt" viewBox="0 0 512.000000 511.000000"
 preserveAspectRatio="xMidYMid meet">

<g transform="translate(0.000000,511.000000) scale(0.100000,-0.100000)"
fill="#000000" stroke="none">
<path d="M2233 4730 c-1106 -168 -1916 -1146 -1870 -2257 46 -1081 847 -1957
1921 -2098 150 -19 402 -19 553 0 341 45 653 160 929 344 532 353 872 886 971
1521 24 158 24 482 -1 635 -39 245 -96 426 -201 640 -112 230 -223 390 -394
567 -340 355 -805 590 -1289 652 -170 22 -459 20 -619 -4z m449 -1770 c120
-37 207 -113 261 -229 40 -85 50 -218 22 -302 -120 -363 -614 -402 -782 -62
-33 67 -38 85 -41 168 -3 70 0 106 13 146 72 224 306 347 527 279z m-804 -635
c38 -114 85 -187 177 -280 65 -65 98 -90 175 -128 125 -62 199 -80 330 -80
312 0 579 190 681 487 l28 81 558 3 c306 1 560 -1 564 -5 8 -9 -12 -159 -35
-258 -112 -480 -426 -912 -847 -1166 -614 -369 -1385 -356 -1979 36 -278 183
-491 423 -640 720 -99 198 -164 410 -186 613 l-7 62 577 -2 577 -3 27 -80z"/>
</g>
</svg>
